<?xml version="1.0" encoding="UTF-8" standalone="no"?><!DOCTYPE svg PUBLIC "-//W3C//DTD SVG 1.1//EN" "http://www.w3.org/Graphics/SVG/1.1/DTD/svg11.dtd"><svg width="64px" height="64px" version="1.1" xmlns="http://www.w3.org/2000/svg" xmlns:xlink="http://www.w3.org/1999/xlink" xml:space="preserve" xmlns:serif="http://www.serif.com/" style="fill-rule:evenodd;clip-rule:evenodd;stroke-linejoin:round;stroke-miterlimit:2;"><g id="Discord"><path d="M64,8L64,56C64,60.415 60.415,64 56,64L8,64C3.585,64 0,60.415 0,56L0,8C0,3.585 3.585,0 8,0L56,0C60.415,0 64,3.585 64,8Z" style="fill:rgb(86,98,246);"/><path d="M64,8L64,56C64,60.415 60.415,64 56,64L8,64C3.585,64 0,60.415 0,56L0,8C0,3.585 3.585,0 8,0L56,0C60.415,0 64,3.585 64,8Z" style="fill:url(#_Linear1);"/><g><g id="path815" transform="matrix(0.232122,0,0,0.229943,8,5.92778)"><path d="M175.169,46.755C161.783,40.492 147.471,35.94 132.507,33.348C130.67,36.671 128.523,41.14 127.042,44.695C111.136,42.303 95.375,42.303 79.761,44.695C78.281,41.14 76.086,36.671 74.231,33.348C59.252,35.94 44.923,40.509 31.537,46.788C4.538,87.587 -2.781,127.373 0.878,166.594C18.785,179.967 36.14,188.09 53.201,193.406C57.414,187.608 61.171,181.445 64.407,174.95C58.243,172.608 52.339,169.717 46.761,166.362C48.241,165.265 49.688,164.119 51.087,162.939C85.112,178.854 122.082,178.854 155.701,162.939C157.116,164.119 158.563,165.265 160.027,166.362C154.432,169.734 148.512,172.624 142.347,174.967C145.584,181.445 149.325,187.625 153.554,193.423C170.631,188.107 188.002,179.984 205.909,166.594C210.203,121.127 198.574,81.706 175.169,46.755ZM69.043,142.474C58.829,142.474 50.452,132.938 50.452,121.326C50.452,109.714 58.65,100.162 69.043,100.162C79.436,100.162 87.812,109.698 87.633,121.326C87.65,132.938 79.436,142.474 69.043,142.474ZM137.745,142.474C127.53,142.474 119.154,132.938 119.154,121.326C119.154,109.714 127.351,100.162 137.745,100.162C148.137,100.162 156.514,109.698 156.335,121.326C156.335,132.938 148.137,142.474 137.745,142.474Z" style="fill:url(#_Linear2);fill-rule:nonzero;"/></g><g id="path8151" serif:id="path815" transform="matrix(0.232122,0,0,0.229943,8,5.92778)"><path d="M0.013,150.267C-0.377,116.335 8.276,81.937 31.537,46.788C44.923,40.509 59.252,35.94 74.231,33.348C76.086,36.671 78.281,41.14 79.761,44.695C95.375,42.303 111.136,42.303 127.042,44.695C128.523,41.14 130.67,36.671 132.507,33.348C147.471,35.94 161.783,40.492 175.169,46.755C195.748,77.485 207.223,111.671 206.776,150.383C206.347,113.453 194.974,80.678 175.169,51.104C161.783,44.841 147.471,40.289 132.507,37.697C130.67,41.02 128.523,45.489 127.042,49.044C111.136,46.651 95.375,46.651 79.761,49.044C78.281,45.489 76.086,41.02 74.231,37.697C59.252,40.289 44.923,44.857 31.537,51.137C9.27,84.785 0.389,117.745 0.013,150.267ZM144.223,178.583C143.58,177.388 142.955,176.183 142.347,174.967C147.35,173.066 152.192,170.804 156.829,168.216C157.882,169.07 158.95,169.904 160.027,170.711C155.002,173.739 149.714,176.379 144.223,178.583ZM49.966,168.218C54.585,170.793 59.411,173.052 64.407,174.95C63.801,176.167 63.176,177.373 62.533,178.567C57.045,176.363 51.771,173.725 46.761,170.711C47.849,169.905 48.919,169.071 49.966,168.218ZM119.252,123.489C120.214,134.099 128.172,142.474 137.745,142.474C147.536,142.474 155.378,134.01 156.254,123.321C156.319,124.094 156.347,124.88 156.335,125.675C156.335,137.287 148.137,146.822 137.745,146.822C127.53,146.822 119.154,137.287 119.154,125.675C119.154,124.938 119.187,124.208 119.252,123.489ZM50.55,123.489C51.513,134.099 59.471,142.474 69.043,142.474C78.83,142.474 86.684,134.018 87.553,123.336C87.618,124.104 87.646,124.885 87.633,125.675C87.65,137.287 79.436,146.822 69.043,146.822C58.829,146.822 50.452,137.287 50.452,125.675C50.452,124.938 50.486,124.208 50.55,123.489Z" style="fill-opacity:0.25;"/></g></g></g><g><path d="M64,8L64,56C64,60.415 60.415,64 56,64L8,64C3.585,64 0,60.415 0,56L0,8C0,3.585 3.585,0 8,0L56,0C60.415,0 64,3.585 64,8ZM63,8C63,4.137 59.863,1 56,1L8,1C4.137,1 1,4.137 1,8L1,56C1,59.863 4.137,63 8,63L56,63C59.863,63 63,59.863 63,56L63,8Z" style="fill-opacity:0.5;"/><g transform="matrix(0.96875,0,0,0.96875,1,1)"><path d="M64,7.226L64,56.774C64,60.762 60.762,64 56.774,64L7.226,64C3.238,64 0,60.762 0,56.774L0,7.226C0,3.238 3.238,0 7.226,0L56.774,0C60.762,0 64,3.238 64,7.226ZM62.968,7.226C62.968,3.807 60.193,1.032 56.774,1.032L7.226,1.032C3.807,1.032 1.032,3.807 1.032,7.226L1.032,56.774C1.032,60.193 3.807,62.968 7.226,62.968L56.774,62.968C60.193,62.968 62.968,60.193 62.968,56.774L62.968,7.226Z" style="fill:white;fill-opacity:0.25;"/></g></g><defs><linearGradient id="_Linear1" x1="0" y1="0" x2="1" y2="0" gradientUnits="userSpaceOnUse" gradientTransform="matrix(3.91887e-15,64,-64,3.91887e-15,32,-1.77636e-15)"><stop offset="0" style="stop-color:rgb(164,171,250);stop-opacity:1"/><stop offset="0.5" style="stop-color:rgb(13,29,236);stop-opacity:1"/><stop offset="1" style="stop-color:rgb(86,98,246);stop-opacity:1"/></linearGradient><linearGradient id="_Linear2" x1="0" y1="0" x2="1" y2="0" gradientUnits="userSpaceOnUse" gradientTransform="matrix(9.70972e-15,160.074,-158.572,9.80171e-15,103.394,33.3485)"><stop offset="0" style="stop-color:rgb(230,230,230);stop-opacity:1"/><stop offset="0.52" style="stop-color:rgb(248,248,248);stop-opacity:1"/><stop offset="1" style="stop-color:white;stop-opacity:1"/></linearGradient></defs></svg>