<?xml version="1.0" encoding="UTF-8" standalone="no"?><!DOCTYPE svg PUBLIC "-//W3C//DTD SVG 1.1//EN" "http://www.w3.org/Graphics/SVG/1.1/DTD/svg11.dtd"><svg width="64px" height="64px" version="1.1" xmlns="http://www.w3.org/2000/svg" xmlns:xlink="http://www.w3.org/1999/xlink" xml:space="preserve" xmlns:serif="http://www.serif.com/" style="fill-rule:evenodd;clip-rule:evenodd;stroke-linejoin:round;stroke-miterlimit:2;"><g id="GitHub"><path d="M64,8L64,56C64,60.415 60.415,64 56,64L8,64C3.585,64 0,60.415 0,56L0,8C0,3.585 3.585,0 8,0L56,0C60.415,0 64,3.585 64,8Z" style="fill:url(#_Linear1);"/><g><g transform="matrix(2.69763,0,0,2.69763,-9.0006,-5.96682)"><path d="M11.831,25.195C11.827,24.707 11.821,24.079 11.821,23.429C8.304,24.077 7.394,22.571 7.114,21.785C6.956,21.381 6.274,20.139 5.679,19.807C5.189,19.544 4.488,18.897 5.661,18.879C6.764,18.861 7.551,19.894 7.814,20.315C9.074,22.431 11.086,21.837 11.891,21.469C12.014,20.559 12.381,19.947 12.784,19.597C9.668,19.247 6.414,18.039 6.414,12.684C6.414,11.161 6.956,9.901 7.849,8.921C7.708,8.571 7.218,7.137 7.989,5.211C7.989,5.211 9.161,4.845 11.838,6.647C12.978,6.331 14.155,6.172 15.338,6.175C16.529,6.175 17.719,6.331 18.838,6.647C21.516,4.827 22.688,5.211 22.688,5.211C23.458,7.137 22.969,8.571 22.829,8.921C23.721,9.901 24.264,11.145 24.264,12.684C24.264,18.057 20.991,19.247 17.876,19.597C18.384,20.035 18.821,20.875 18.821,22.187C18.821,23.407 18.814,24.471 18.809,25.195L11.831,25.195Z" style="fill:url(#_Linear2);"/></g><rect x="22.92" y="62" width="18.811" height="1" style="fill:white;fill-opacity:0.75;"/><g transform="matrix(2.69763,0,0,2.69763,-9.0006,-5.96682)"><path d="M5.112,19.357C4.93,19.118 4.971,18.89 5.661,18.879C6.764,18.861 7.551,19.894 7.814,20.315C9.074,22.431 11.086,21.837 11.891,21.469C11.981,20.8 12.204,20.291 12.476,19.93C12.578,19.944 12.681,19.956 12.784,19.968C12.381,20.318 12.014,20.93 11.891,21.84C11.086,22.208 9.074,22.802 7.814,20.685C7.551,20.264 6.764,19.232 5.661,19.25C5.38,19.254 5.207,19.295 5.112,19.357ZM6.415,12.902C6.414,12.83 6.414,12.757 6.414,12.684C6.414,11.215 6.918,9.991 7.756,9.026C7.792,9.144 7.826,9.233 7.849,9.292C6.986,10.239 6.45,11.448 6.415,12.902ZM7.569,7.503C7.546,6.883 7.634,6.099 7.989,5.211C7.989,5.211 9.161,4.845 11.838,6.647C12.978,6.331 14.155,6.172 15.338,6.175C16.529,6.175 17.719,6.331 18.838,6.647C21.516,4.827 22.688,5.211 22.688,5.211C23.043,6.1 23.131,6.884 23.108,7.505C23.088,6.953 22.976,6.302 22.688,5.582C22.688,5.582 21.516,5.198 18.838,7.018C17.719,6.702 16.529,6.545 15.338,6.545C14.155,6.543 12.978,6.701 11.838,7.018C9.161,5.215 7.989,5.582 7.989,5.582C7.701,6.301 7.589,6.952 7.569,7.503ZM22.922,9.026C23.759,9.989 24.264,11.199 24.264,12.684C24.264,12.757 24.263,12.829 24.262,12.901C24.227,11.433 23.692,10.239 22.829,9.292C22.853,9.233 22.886,9.143 22.922,9.026ZM18.186,19.93C18.549,20.412 18.821,21.153 18.821,22.187C18.821,22.312 18.821,22.436 18.821,22.558C18.821,21.245 18.384,20.405 17.876,19.968C17.979,19.956 18.082,19.944 18.186,19.93Z" style="fill-opacity:0.25;"/></g></g></g><g><path d="M64,8L64,56C64,60.415 60.415,64 56,64L8,64C3.585,64 0,60.415 0,56L0,8C0,3.585 3.585,0 8,0L56,0C60.415,0 64,3.585 64,8ZM63,8C63,4.137 59.863,1 56,1L8,1C4.137,1 1,4.137 1,8L1,56C1,59.863 4.137,63 8,63L56,63C59.863,63 63,59.863 63,56L63,8Z" style="fill-opacity:0.5;"/><g transform="matrix(0.96875,0,0,0.96875,1,1)"><path d="M64,7.226L64,56.774C64,60.762 60.762,64 56.774,64L7.226,64C3.238,64 0,60.762 0,56.774L0,7.226C0,3.238 3.238,0 7.226,0L56.774,0C60.762,0 64,3.238 64,7.226ZM62.968,7.226C62.968,3.807 60.193,1.032 56.774,1.032L7.226,1.032C3.807,1.032 1.032,3.807 1.032,7.226L1.032,56.774C1.032,60.193 3.807,62.968 7.226,62.968L56.774,62.968C60.193,62.968 62.968,60.193 62.968,56.774L62.968,7.226Z" style="fill:white;fill-opacity:0.25;"/></g></g><defs><linearGradient id="_Linear1" x1="0" y1="0" x2="1" y2="0" gradientUnits="userSpaceOnUse" gradientTransform="matrix(3.91887e-15,64,-64,3.91887e-15,32,1.77636e-15)"><stop offset="0" style="stop-color:rgb(64,64,64);stop-opacity:1"/><stop offset="0.5" style="stop-color:black;stop-opacity:1"/><stop offset="1" style="stop-color:rgb(32,32,32);stop-opacity:1"/></linearGradient><linearGradient id="_Linear2" x1="0" y1="0" x2="1" y2="0" gradientUnits="userSpaceOnUse" gradientTransform="matrix(1.22572e-15,20.0175,-20.0175,1.22572e-15,15.1987,5.17743)"><stop offset="0" style="stop-color:rgb(230,230,230);stop-opacity:1"/><stop offset="1" style="stop-color:white;stop-opacity:1"/></linearGradient></defs></svg>