<?xml version="1.0" encoding="UTF-8" standalone="no"?><!DOCTYPE svg PUBLIC "-//W3C//DTD SVG 1.1//EN" "http://www.w3.org/Graphics/SVG/1.1/DTD/svg11.dtd"><svg width="64px" height="64px" version="1.1" xmlns="http://www.w3.org/2000/svg" xmlns:xlink="http://www.w3.org/1999/xlink" xml:space="preserve" xmlns:serif="http://www.serif.com/" style="fill-rule:evenodd;clip-rule:evenodd;stroke-linejoin:round;stroke-miterlimit:2;"><g id="Nuketris"><path d="M64,8L64,56C64,60.415 60.415,64 56,64L8,64C3.585,64 0,60.415 0,56L0,8C0,3.585 3.585,0 8,0L56,0C60.415,0 64,3.585 64,8Z" style="fill:url(#_Linear1);"/><g transform="matrix(0.046875,0,0,0.046875,32,32)"><g transform="matrix(1,0,0,1,-512,-512)"><g id="layer1" transform="matrix(3.77953,0,0,3.77953,1.88976e-05,0)"><path id="path976" d="M270.187,3.69C270.187,3.69 226.838,42.534 202.108,63.016C189.715,73.28 176.345,83.615 164.18,91.498C152.016,99.38 140.886,104.702 133.992,105.278C110.393,107.249 78.777,84.221 78.777,84.221C78.777,84.221 101.803,115.835 99.832,139.434C99.229,146.65 96.018,151.55 96.018,151.55L97.115,160.8C102.224,154.383 104.797,145.673 105.28,139.887C106.643,123.564 98.304,105.646 93.374,98.83C100.353,103.054 118.122,112.087 134.445,110.723C143.442,109.972 154.689,104.155 167.147,96.082C179.606,88.009 193.107,77.568 205.599,67.222C208.85,64.529 210.937,62.498 214.016,59.862C211.378,62.94 209.349,65.033 206.655,68.285C196.309,80.777 185.868,94.271 177.795,106.73C169.722,119.188 163.912,130.436 163.161,139.434C162.868,142.932 162.515,148.006 164.704,154.351C155.323,154.704 145.196,154.99 134.184,155.189L133.084,155.211L96.495,191.617L86.888,108.204L73.912,120.778C57.935,121.385 40.442,123.381 26.66,126.282C19.613,127.765 13.559,129.456 9.063,131.395C6.814,132.365 4.948,133.38 3.474,134.624C2.001,135.867 0.746,137.54 0.746,139.662C0.746,141.571 1.715,143.21 2.919,144.44C4.124,145.67 5.628,146.647 7.359,147.541C10.823,149.329 15.242,150.755 19.929,151.944C29.305,154.322 39.527,155.67 44.685,155.67L45.79,155.67L76.902,125.492C76.94,125.458 76.977,125.422 77.013,125.385L82.1,120.454L82.724,119.845L88.002,165.667C85.593,169.666 82.862,174 80.04,178.012C55.824,213.831 7.34,267.244 7.34,267.244C7.34,267.244 53.523,227.013 86.736,202.116L86.006,195.772L83.056,197.974C72.163,205.996 62.086,214.659 52.526,222.604C63.341,210.037 74.692,195.623 84.348,181.383C86.134,178.697 87.653,176.242 88.959,173.983L92.353,203.445L135.405,160.612C184.542,159.686 217.116,157.156 237.404,153.807C247.641,152.117 254.792,150.246 259.635,148.138C262.057,147.085 263.919,145.983 265.319,144.642C266.72,143.301 267.695,141.548 267.695,139.662C267.695,137.673 266.592,135.965 265.196,134.704C263.801,133.443 262.018,132.433 259.822,131.47C255.428,129.546 249.343,127.881 241.669,126.378C226.943,123.493 206.369,121.278 181.909,119.949L178.559,125.235C204.227,126.532 225.709,128.821 240.617,131.741C248.071,133.202 253.895,134.841 257.629,136.476C259.495,137.294 260.828,138.121 261.535,138.76C262.241,139.399 262.228,139.652 262.228,139.662C262.228,139.777 262.228,140.034 261.54,140.693C260.852,141.352 259.508,142.235 257.458,143.127C253.358,144.91 246.505,146.766 236.513,148.415C221.872,150.832 200.421,152.856 170.452,154.122C167.922,147.966 168.287,143.689 168.605,139.887C169.18,132.992 174.504,121.868 182.386,109.704C190.269,97.54 200.602,84.163 210.866,71.771C231.348,47.041 270.187,3.69 270.187,3.69L270.187,3.69ZM67.79,126.714L43.724,150.06C39.29,149.959 29.815,148.816 21.275,146.65C16.823,145.521 12.681,144.134 9.869,142.683C8.463,141.957 7.399,141.208 6.821,140.618C6.244,140.029 6.213,139.754 6.213,139.662C6.213,139.785 6.194,139.481 7.002,138.798C7.811,138.116 9.273,137.253 11.225,136.411C15.128,134.728 20.951,133.069 27.787,131.63C39.396,129.186 53.895,127.548 67.79,126.714ZM173.434,163.954L167.784,164.126C167.784,164.126 172.035,175.769 175.282,180.335C168.572,176.382 150.588,167.406 134.446,168.594L125.349,177.646C127.405,175.737 130.326,174.047 134.445,174.047C158.044,172.076 189.473,194.915 189.473,194.915C189.473,194.915 179.214,179.041 173.434,163.954L173.434,163.954Z" style="fill:url(#_Linear2);"/></g></g></g></g><g><path d="M64,8L64,56C64,60.415 60.415,64 56,64L8,64C3.585,64 0,60.415 0,56L0,8C0,3.585 3.585,0 8,0L56,0C60.415,0 64,3.585 64,8ZM63,8C63,4.137 59.863,1 56,1L8,1C4.137,1 1,4.137 1,8L1,56C1,59.863 4.137,63 8,63L56,63C59.863,63 63,59.863 63,56L63,8Z" style="fill-opacity:0.5;"/><g transform="matrix(0.96875,0,0,0.96875,1,1)"><path d="M64,7.226L64,56.774C64,60.762 60.762,64 56.774,64L7.226,64C3.238,64 0,60.762 0,56.774L0,7.226C0,3.238 3.238,0 7.226,0L56.774,0C60.762,0 64,3.238 64,7.226ZM62.968,7.226C62.968,3.807 60.193,1.032 56.774,1.032L7.226,1.032C3.807,1.032 1.032,3.807 1.032,7.226L1.032,56.774C1.032,60.193 3.807,62.968 7.226,62.968L56.774,62.968C60.193,62.968 62.968,60.193 62.968,56.774L62.968,7.226Z" style="fill:white;fill-opacity:0.25;"/></g></g><defs><linearGradient id="_Linear1" x1="0" y1="0" x2="1" y2="0" gradientUnits="userSpaceOnUse" gradientTransform="matrix(3.91887e-15,64,-64,3.91887e-15,32,1.77636e-15)"><stop offset="0" style="stop-color:rgb(64,64,64);stop-opacity:1"/><stop offset="0.5" style="stop-color:black;stop-opacity:1"/><stop offset="1" style="stop-color:rgb(32,32,32);stop-opacity:1"/></linearGradient><linearGradient id="_Linear2" x1="0" y1="0" x2="1" y2="0" gradientUnits="userSpaceOnUse" gradientTransform="matrix(1.65899e-14,270.933,-265.013,1.62274e-14,135.467,0)"><stop offset="0" style="stop-color:rgb(230,230,230);stop-opacity:1"/><stop offset="1" style="stop-color:white;stop-opacity:1"/></linearGradient></defs></svg>