<?xml version="1.0" encoding="UTF-8" standalone="no"?><!DOCTYPE svg PUBLIC "-//W3C//DTD SVG 1.1//EN" "http://www.w3.org/Graphics/SVG/1.1/DTD/svg11.dtd"><svg width="64px" height="64px" version="1.1" xmlns="http://www.w3.org/2000/svg" xmlns:xlink="http://www.w3.org/1999/xlink" xml:space="preserve" xmlns:serif="http://www.serif.com/" style="fill-rule:evenodd;clip-rule:evenodd;stroke-linejoin:round;stroke-miterlimit:2;"><g id="Reddit"><path d="M64,8L64,56C64,60.415 60.415,64 56,64L8,64C3.585,64 0,60.415 0,56L0,8C0,3.585 3.585,0 8,0L56,0C60.415,0 64,3.585 64,8Z" style="fill:rgb(255,69,0);"/><path d="M64,8L64,56C64,60.415 60.415,64 56,64L8,64C3.585,64 0,60.415 0,56L0,8C0,3.585 3.585,0 8,0L56,0C60.415,0 64,3.585 64,8Z" style="fill:url(#_Linear1);"/><g transform="matrix(0.0721267,0,0,0.0721267,-4.10545,-3.68369)"><path d="M833.332,500C833.332,459.649 800.586,426.901 760.231,426.901C740.351,426.901 722.806,434.504 709.939,447.368C660.234,411.695 591.225,388.303 515.204,385.38L548.537,229.239L656.725,252.048C657.893,279.532 680.701,301.755 708.772,301.755C737.426,301.755 760.818,278.363 760.818,249.708C760.818,221.054 737.426,197.662 708.772,197.662C688.301,197.662 670.759,209.358 662.572,226.902L541.521,201.169C538.012,200.584 534.504,201.169 531.58,202.923C528.656,204.677 526.9,207.602 525.73,211.111L488.889,385.38C411.111,387.719 341.521,410.526 291.229,447.368C278.362,435.086 260.232,426.9 240.935,426.9C200.584,426.9 167.836,459.649 167.836,499.999C167.836,529.824 185.38,554.97 211.111,566.666C209.941,573.683 209.357,581.286 209.357,588.887C209.357,701.167 339.765,791.811 501.17,791.811C662.572,791.811 792.982,701.167 792.982,588.887C792.982,581.286 792.399,574.267 791.228,567.249C815.203,555.555 833.332,529.824 833.332,500ZM333.333,552.046C333.333,523.392 356.725,500 385.379,500C414.034,500 437.425,523.392 437.425,552.046C437.425,580.7 414.033,604.093 385.379,604.093C356.725,604.093 333.333,580.7 333.333,552.046ZM623.976,689.473C588.305,725.148 520.467,727.486 500.583,727.486C480.701,727.486 412.28,724.561 377.192,689.473C371.929,684.21 371.929,675.439 377.192,670.176C382.457,664.913 391.228,664.913 396.49,670.176C418.713,692.398 466.666,700.585 501.17,700.585C535.671,700.585 583.042,692.397 605.847,670.176C611.11,664.913 619.884,664.913 625.147,670.176C629.238,676.022 629.238,684.21 623.976,689.473ZM614.618,604.093C585.963,604.093 562.571,580.7 562.571,552.046C562.571,523.392 585.963,500 614.618,500C643.275,500 666.668,523.392 666.668,552.046C666.668,580.7 643.275,604.093 614.618,604.093Z" style="fill:url(#_Linear2);fill-rule:nonzero;"/></g><g transform="matrix(0.0721267,0,0,0.0721267,-4.10545,-3.68369)"><path d="M168.158,506.959C167.945,504.671 167.836,502.349 167.836,499.999C167.836,459.649 200.584,426.9 240.935,426.9C260.232,426.9 278.362,435.086 291.229,447.368C341.521,410.526 411.111,387.719 488.889,385.38L525.73,211.111C526.9,207.602 528.656,204.677 531.58,202.923C534.504,201.169 538.012,200.584 541.521,201.169L662.572,226.902C670.759,209.358 688.301,197.662 708.772,197.662C737.426,197.662 760.818,221.054 760.818,249.708C760.818,252.058 760.661,254.372 760.356,256.64C756.947,231.24 735.077,211.527 708.772,211.527C688.301,211.527 670.759,223.222 662.572,240.766L541.521,215.033C538.012,214.449 534.504,215.033 531.58,216.788C528.656,218.542 526.9,221.467 525.73,224.975L488.889,399.245C411.111,401.583 341.521,424.39 291.229,461.232C278.362,448.951 260.232,440.764 240.935,440.764C202.912,440.764 171.641,469.843 168.158,506.959ZM518.138,385.503C592.999,388.908 660.874,412.154 709.939,447.368C722.806,434.504 740.351,426.901 760.231,426.901C800.586,426.901 833.332,459.649 833.332,500C833.332,502.332 833.221,504.638 833.005,506.915C829.502,469.82 798.242,440.765 760.231,440.765C740.351,440.765 722.806,448.369 709.939,461.232C660.234,425.559 591.225,402.167 515.204,399.245L518.138,385.503ZM792.724,580.362C792.896,583.14 792.982,585.97 792.982,588.887C792.982,591.217 792.926,593.537 792.814,595.847C792.565,590.808 792.037,585.96 791.228,581.114C791.729,580.869 792.228,580.618 792.724,580.362ZM209.521,595.783C209.412,593.494 209.357,591.195 209.357,588.887C209.357,585.859 209.45,582.832 209.635,579.841C210.124,580.075 210.616,580.305 211.111,580.531C210.299,585.398 209.77,590.548 209.521,595.783ZM375.099,686.757C375.667,687.731 376.364,688.645 377.192,689.473C412.28,724.561 480.701,727.486 500.583,727.486C520.467,727.486 588.305,725.148 623.976,689.473C624.977,688.471 625.788,687.364 626.416,686.187C629.166,691.768 628.62,698.692 623.976,703.337C588.305,739.012 520.467,741.351 500.583,741.351C480.701,741.351 412.28,738.426 377.192,703.337C372.757,698.902 372.059,691.976 375.099,686.757ZM333.795,558.978C337.204,584.379 359.074,604.093 385.379,604.093C411.684,604.093 433.554,584.379 436.963,558.978C437.268,561.247 437.425,563.561 437.425,565.911C437.425,594.564 414.033,617.958 385.379,617.958C356.725,617.958 333.333,594.564 333.333,565.911C333.333,563.561 333.49,561.247 333.795,558.978ZM563.033,558.978C566.442,584.379 588.313,604.093 614.618,604.093C640.925,604.093 662.796,584.379 666.206,558.978C666.511,561.247 666.668,563.561 666.668,565.911C666.668,594.564 643.275,617.958 614.618,617.958C585.963,617.958 562.571,594.564 562.571,565.911C562.571,563.561 562.728,561.247 563.033,558.978Z" style="fill-opacity:0.25;"/></g></g><g><path d="M64,8L64,56C64,60.415 60.415,64 56,64L8,64C3.585,64 0,60.415 0,56L0,8C0,3.585 3.585,0 8,0L56,0C60.415,0 64,3.585 64,8ZM63,8C63,4.137 59.863,1 56,1L8,1C4.137,1 1,4.137 1,8L1,56C1,59.863 4.137,63 8,63L56,63C59.863,63 63,59.863 63,56L63,8Z" style="fill-opacity:0.5;"/><g transform="matrix(0.96875,0,0,0.96875,1,1)"><path d="M64,7.226L64,56.774C64,60.762 60.762,64 56.774,64L7.226,64C3.238,64 0,60.762 0,56.774L0,7.226C0,3.238 3.238,0 7.226,0L56.774,0C60.762,0 64,3.238 64,7.226ZM62.968,7.226C62.968,3.807 60.193,1.032 56.774,1.032L7.226,1.032C3.807,1.032 1.032,3.807 1.032,7.226L1.032,56.774C1.032,60.193 3.807,62.968 7.226,62.968L56.774,62.968C60.193,62.968 62.968,60.193 62.968,56.774L62.968,7.226Z" style="fill:white;fill-opacity:0.25;"/></g></g><defs><linearGradient id="_Linear1" x1="0" y1="0" x2="1" y2="0" gradientUnits="userSpaceOnUse" gradientTransform="matrix(3.91887e-15,64,-64,3.91887e-15,32,-1.77636e-15)"><stop offset="0" style="stop-color:rgb(255,116,64);stop-opacity:1"/><stop offset="0.5" style="stop-color:rgb(191,52,0);stop-opacity:1"/><stop offset="1" style="stop-color:rgb(255,69,0);stop-opacity:1"/></linearGradient><linearGradient id="_Linear2" x1="0" y1="0" x2="1" y2="0" gradientUnits="userSpaceOnUse" gradientTransform="matrix(0.586,594.149,-594.149,0.586,500.584,197.662)"><stop offset="0" style="stop-color:rgb(230,230,230);stop-opacity:1"/><stop offset="1" style="stop-color:white;stop-opacity:1"/></linearGradient></defs></svg>