<?xml version="1.0" encoding="UTF-8" standalone="no"?><!DOCTYPE svg PUBLIC "-//W3C//DTD SVG 1.1//EN" "http://www.w3.org/Graphics/SVG/1.1/DTD/svg11.dtd"><svg width="128px" height="128px" version="1.1" xmlns="http://www.w3.org/2000/svg" xmlns:xlink="http://www.w3.org/1999/xlink" xml:space="preserve" xmlns:serif="http://www.serif.com/" style="fill-rule:evenodd;clip-rule:evenodd;stroke-linejoin:round;stroke-miterlimit:2;"><g id="Recreation"><circle id="Outer" cx="64" cy="64" r="64" style="fill:rgb(102,0,0);"/><g id="Inner" transform="matrix(0.765625,0,0,0.765625,15,15)"><circle cx="64" cy="64" r="64" style="fill:rgb(140,0,0);"/></g><g id="Ring-Shadow" serif:id="Ring Shadow" transform="matrix(0.953125,0,0,0.953125,3,3)"><path d="M64,0C99.323,0 128,28.677 128,64C128,99.323 99.323,128 64,128C28.677,128 0,99.323 0,64C0,28.677 28.677,0 64,0ZM64,9.443C33.889,9.443 9.443,33.889 9.443,64C9.443,94.111 33.889,118.557 64,118.557C94.111,118.557 118.557,94.111 118.557,64C118.557,33.889 94.111,9.443 64,9.443Z" style="fill:url(#_Radial1);"/></g><g id="Ring" transform="matrix(0.9375,0,0,0.9375,4,4)"><path d="M64,0C99.323,0 128,28.677 128,64C128,99.323 99.323,128 64,128C28.677,128 0,99.323 0,64C0,28.677 28.677,0 64,0ZM64,7.467C32.798,7.467 7.467,32.798 7.467,64C7.467,95.202 32.798,120.533 64,120.533C95.202,120.533 120.533,95.202 120.533,64C120.533,32.798 95.202,7.467 64,7.467Z" style="fill:rgb(242,0,0);"/></g><path id="R--sharp--Border-Outer" serif:id="R (sharp) Border Outer" d="M43.245,70.729L55.077,105.977L18.78,97.759L11.781,19.56L15.452,19.038C49.862,15.375 71.204,12.519 93.957,11L96.861,10.969L112.216,56.463L109.9,58.2C109.9,58.2 102.017,64.11 99.061,66.573L97.948,67.5L96.5,67.5C87.539,67.5 78.041,67.081 70.801,67.285C70.328,67.299 69.867,67.313 69.419,67.329L121.34,109.455L109.5,110C102.641,109.738 80.942,112.997 71.307,116.142L69.648,116.371L68.071,116L66.727,115.094L65.769,113.722L46.867,70.4C45.535,70.408 44.336,70.63 43.245,70.729ZM52.756,63.988L58.211,61.26C60.029,60.351 63.078,59.724 66.98,59.456C74.224,58.958 84.9,59.452 95.081,59.497C97.276,57.739 100.581,55.217 102.787,53.545L91.143,19.044C75.078,19.368 59.9,20.997 20.329,26.441L26.22,91.241L42.923,95.023L33.58,67.418L35.482,64.827L36.324,64.164C36.945,63.755 37.762,63.373 38.765,63.08C41.259,62.353 45.417,62.112 49.862,62.516L52.19,62.728L52.756,63.988ZM52.844,64.183L53.148,64.86L71.714,106.169C79.135,104.203 90.283,102.48 98.963,101.601L52.844,64.183ZM40.51,29.5C52.546,29.505 58.997,30.006 62.533,30.604C65.846,31.164 67.285,31.957 68.063,32.52L68.244,32.652L69.504,34.238L70.015,35.97C70.481,40.37 70.493,44.77 70.056,49.174L69.648,50.71L68.806,52.009L67.608,52.989L66.131,53.563C59.321,55.025 50.802,56.86 42.648,57.434L40.852,57.229L39.295,56.437L38.106,55.157C38.106,55.157 37.418,53.493 37.413,53.471L37.409,53.45C36.033,46.656 35.553,45.103 35.504,34.606L35.857,32.651L36.943,30.988L38.591,29.88C38.591,29.88 40.486,29.511 40.51,29.5ZM44,38C44.101,43.829 44.26,44.82 45,48.5C51.085,47.876 56.191,47.135 61.5,46C61.652,43.497 61.68,41.712 61.5,39.215C61.186,39.138 60.833,39.061 60.471,39C57.46,38.491 53.391,38.073 44,38Z" style="fill:rgb(102,0,0);stroke:rgb(102,0,0);stroke-width:4.67px;"/><path id="R--sharp--Border-Middle" serif:id="R (sharp) Border Middle" d="M16.091,24C61.248,17.757 76.141,15.191 93.999,14.998L107.5,55C107.5,55 99.5,61 96.5,63.5C81.5,63.5 65,62.338 60,64.838L109.5,105C102.383,104.728 79.903,107.592 69.93,110.856C69.686,110.938 69.42,110.822 69.315,110.587C67.298,106.1 49.5,66.5 49.5,66.5C44,66 39,66.5 38,68L49,100.5L22.5,94.5L16.091,24ZM39.503,34.52C39.548,44.645 40.007,46.126 41.329,52.655C41.433,53.141 41.878,53.477 42.374,53.444C50.328,52.884 58.643,51.08 65.291,49.652C65.715,49.561 66.032,49.207 66.076,48.775C66.486,44.647 66.474,40.519 66.038,36.392C66.012,36.149 65.898,35.925 65.718,35.761C64.376,34.789 59.96,33.508 40.509,33.5C40.239,33.498 39.98,33.605 39.79,33.797C39.601,33.989 39.497,34.25 39.503,34.52Z" style="fill:rgb(255,31,38);stroke:rgb(255,31,38);stroke-width:8px;stroke-linecap:round;stroke-linejoin:miter;stroke-miterlimit:100;"/><path id="R--sharp--Border-Middle-Sheen-Weak" serif:id="R (sharp) Border Middle Sheen Weak" d="M95,12L96.861,10.969L112.216,56.463L109.9,58.2C109.9,58.2 102.017,64.11 99.061,66.573L97.948,67.5L96.5,67.5C87.539,67.5 78.041,67.081 70.801,67.285C70.406,67.297 69.872,67.523 69.494,67.536L66.625,66.927C67.073,66.911 69.328,66.299 69.801,66.285C77.041,66.081 86.539,66.5 95.5,66.5L96.948,66.5L98.061,65.573C101.017,63.11 108.9,57.2 108.9,57.2L110,56L95,12ZM69.5,67.5L120.5,109.423L109.347,108.997C102.489,108.735 80.839,111.503 71.204,114.648L69.546,114.877L67.968,114.506L66.625,113.6L66.195,112.984L67.608,113L69.056,112.984L70.714,112.543C80.349,109.398 107.141,106.549 114,106.811C99.334,94.891 86.218,84.832 66.625,67L69.5,67.5ZM46,69.5C44.852,69.525 43.942,69.914 43,70L55.077,105.977L18.78,97.759L18.78,96L52.711,103.5L41,69C42.091,68.901 44.668,68.553 46,68.545L46,69.5ZM90.485,19.058C74.659,19.413 74.078,18.368 90.143,18.044L90.485,19.058ZM51.616,62.676L52.19,62.728L52.206,62.763L51.756,62.988L51.616,62.676ZM52.711,63.886L52.756,63.988L52.806,63.963L97.963,100.601C97.894,100.608 97.825,100.615 97.756,100.622L52.844,64.183L53.148,64.86L71.207,105.04C71.041,105.083 70.877,105.126 70.714,105.169L52.148,63.86L51.844,63.183L52.711,63.886ZM67.78,32.326C67.883,32.393 67.977,32.458 68.063,32.52L68.244,32.652L69.504,34.238L70.015,35.97C70.481,40.37 70.493,44.77 70.056,49.174L69.648,50.71L68.806,52.009L67.608,52.989L66.131,53.563C59.321,55.025 50.802,56.86 42.648,57.434L40.852,57.229L39.295,56.437L38.429,55.505L39.852,56.229L41.648,56.434C49.802,55.86 58.321,54.025 65.131,52.563L66.608,51.989L67.806,51.009L68.648,49.71L69.056,48.174C69.493,43.77 69.481,39.37 69.015,34.97L68.504,33.238L67.78,32.326ZM61.281,38.506C61.254,38.501 61.227,38.496 61.2,38.492C58.189,37.983 52.925,37.586 43.534,37.512C43.625,42.747 43.907,45.059 44.499,48.142C44.237,48.171 42.762,48.473 42.5,48.5C41.76,44.82 41.601,42.329 41.5,36.5C50.891,36.573 57.189,36.983 60.2,37.492C60.562,37.553 60.914,37.63 61.229,37.707C61.248,37.973 61.265,38.239 61.281,38.506Z" style="fill:rgb(255,178,181);fill-opacity:0.5;"/><path id="R--sharp--Border-Middle-Sheen" serif:id="R (sharp) Border Middle Sheen" d="M21.006,98.263L18.78,97.759L11.781,20.771L16,20.058C61.449,13.775 74.694,11.852 92.957,9.969L96.201,9.969L95.081,12.6C77.107,12.795 66.901,15.754 21.452,22.038L13.671,22.56L21.006,98.263ZM67.195,113.984L66.625,113.6L65.666,112.227L47.32,71.408C47.502,71.404 47.818,71.409 48,71.408L67.195,113L67.195,113.984ZM27.148,91.451L42.923,95.023L33.58,67.418L35.482,64.827L36.324,64.164C36.945,63.755 37.762,63.373 38.765,63.08C41.259,62.353 45.417,62.112 49.862,62.516L52.19,62.728L52.616,63.676L50.862,63.516C46.417,63.112 42.259,63.353 39.765,64.08C38.762,64.373 37.945,64.755 37.324,65.164L36.482,65.827L34.58,68.418L43.923,96.023L27.22,92.241L27.148,91.451ZM53.206,63.763L58.211,61.26C60.029,60.351 63.078,59.724 66.98,59.456C74.224,58.958 84.9,59.452 95.081,59.497C97.276,57.739 100.581,55.217 102.787,53.545L91.485,20.058C91.705,20.053 91.924,20.049 92.143,20.044L103.787,54.545C101.581,56.217 98.276,58.739 96.081,60.497C85.9,60.452 75.224,59.958 67.98,60.456C64.078,60.724 61.029,61.351 59.211,62.26L53.806,64.963L53.711,64.886L53.206,63.763ZM72.207,106.04C79.562,104.143 90.298,102.487 98.756,101.622L99.963,102.601C91.283,103.48 80.135,105.203 72.714,107.169L72.207,106.04ZM39.429,56.505L39.295,56.437L38.106,55.157C38.106,55.157 37.418,53.493 37.413,53.471L37.409,53.45C36.033,46.656 35.553,45.103 35.504,34.606L35.857,32.651L36.943,30.988L38.591,29.88C38.591,29.88 40.486,29.511 40.51,29.5C52.546,29.505 58.997,30.006 62.533,30.604C65.846,31.164 67.285,31.957 68.063,32.52L68.244,32.652L68.78,33.326C67.944,32.785 66.481,32.102 63.533,31.604C59.997,31.006 53.546,30.505 41.51,30.5C41.486,30.511 39.591,30.88 39.591,30.88L37.943,31.988L36.857,33.651L36.504,35.606C36.553,46.103 37.033,47.656 38.409,54.45L38.413,54.471C38.418,54.493 39.106,56.157 39.106,56.157L39.429,56.505ZM45.499,49.142C51.327,48.494 57.189,47.295 62.27,46.209C62.406,43.973 62.41,41.738 62.281,39.506C62.614,39.564 63.192,39.434 63.483,39.506C63.662,42.003 63.635,45.497 63.483,48C58.173,49.135 51.584,50.376 45.499,51C45.424,50.625 45.567,49.491 45.499,49.142Z" style="fill:white;fill-opacity:0.9;"/><g id="R-Border-Inner" serif:id="R Border Inner" transform="matrix(1,0,0,1,0,1)"><path d="M22.087,23.846C22.037,23.358 22.339,22.866 22.822,22.777C50.826,17.646 56.745,15.331 90.891,13.346C91.323,13.321 91.708,13.623 91.843,14.033L103.949,54.346C103.987,54.458 104.004,54.576 104,54.695C103.777,57.101 99.691,60.353 96.779,62.768C96.599,62.918 96.372,63 96.138,62.999C82.43,62.978 66.744,61.747 60.442,63.471C60.135,63.601 59.914,63.875 59.853,64.201C59.791,64.528 59.897,64.864 60.135,65.096C65.77,70.603 90.896,95.108 97.761,101.804C98.051,102.087 98.141,102.516 97.991,102.892C97.84,103.268 97.478,103.515 97.073,103.52C90.063,103.632 79.561,104.282 70.784,106.771C70.327,106.903 69.841,106.696 69.621,106.276L49.301,67.532C49.143,67.23 48.841,67.029 48.5,67C43.885,66.601 40.762,66.595 39.45,67.622C39.219,67.874 39.139,68.23 39.239,68.557C40.269,72.032 45.813,90.864 47.542,96.507C47.642,96.833 47.569,97.187 47.349,97.447C47.128,97.707 46.79,97.837 46.452,97.791L30.28,95.605C29.822,95.544 29.467,95.177 29.419,94.717L22.087,23.846ZM39.503,34.52C39.548,44.645 40.007,46.126 41.329,52.655C41.433,53.141 41.878,53.477 42.374,53.444C50.328,52.884 58.643,51.08 65.291,49.652C65.715,49.561 66.032,49.207 66.076,48.775C66.486,44.647 66.474,40.519 66.038,36.392C66.012,36.149 65.898,35.925 65.718,35.761C64.376,34.789 59.96,33.508 40.509,33.5C40.239,33.498 39.98,33.605 39.79,33.797C39.601,33.989 39.497,34.25 39.503,34.52Z" style="fill:none;stroke:rgb(128,0,0);stroke-width:4px;stroke-linecap:round;stroke-miterlimit:1.5;"/></g><path id="R" d="M22.087,23.846C22.037,23.358 22.337,22.851 22.822,22.777C54.999,17.873 57.487,16.854 90.891,14.346C91.323,14.314 91.708,14.623 91.843,15.033L103.949,54.346C103.987,54.458 104.004,54.576 104,54.695C103.777,57.101 99.691,60.353 96.779,62.768C96.599,62.918 96.372,63 96.138,62.999C82.43,62.978 66.744,61.747 60.442,63.471C60.135,63.601 59.914,63.875 59.853,64.201C59.791,64.528 59.897,64.864 60.135,65.096C65.77,70.603 90.896,95.108 97.761,101.804C98.051,102.087 98.141,102.516 97.991,102.892C97.84,103.268 97.478,103.515 97.073,103.52C90.063,103.632 79.561,104.282 70.784,106.771C70.327,106.903 69.841,106.696 69.621,106.276L48.753,66.483C48.595,66.18 48.292,65.979 47.952,65.95C43.336,65.551 40.214,65.546 38.902,66.572C38.671,66.825 38.591,67.18 38.691,67.507C39.72,70.983 45.813,90.864 47.542,96.507C47.642,96.833 47.569,97.187 47.349,97.447C47.128,97.707 46.79,97.837 46.452,97.791L30.28,95.605C29.822,95.544 29.467,95.177 29.419,94.717L22.087,23.846ZM39.503,34.52C39.548,44.645 40.007,46.126 41.329,52.655C41.433,53.141 41.878,53.477 42.374,53.444C50.328,52.884 58.643,51.08 65.291,49.652C65.715,49.561 66.032,49.207 66.076,48.775C66.486,44.647 66.474,40.519 66.038,36.392C66.012,36.149 65.898,35.925 65.718,35.761C64.376,34.789 59.96,33.508 40.509,33.5C40.239,33.498 39.98,33.605 39.79,33.797C39.601,33.989 39.497,34.25 39.503,34.52Z" style="fill:white;"/></g><defs><radialGradient id="_Radial1" cx="0" cy="0" r="1" gradientUnits="userSpaceOnUse" gradientTransform="matrix(64,-6.70939e-14,6.70939e-14,64,64,64)"><stop offset="0" style="stop-color:black;stop-opacity:0"/><stop offset="0.85" style="stop-color:black;stop-opacity:0"/><stop offset="0.89" style="stop-color:black;stop-opacity:0.27"/><stop offset="0.93" style="stop-color:black;stop-opacity:1"/><stop offset="0.96" style="stop-color:black;stop-opacity:0.27"/><stop offset="1" style="stop-color:black;stop-opacity:0"/></radialGradient></defs></svg>