<?xml version="1.0" encoding="UTF-8" standalone="no"?><!DOCTYPE svg PUBLIC "-//W3C//DTD SVG 1.1//EN" "http://www.w3.org/Graphics/SVG/1.1/DTD/svg11.dtd"><svg width="64px" height="64px" version="1.1" xmlns="http://www.w3.org/2000/svg" xmlns:xlink="http://www.w3.org/1999/xlink" xml:space="preserve" xmlns:serif="http://www.serif.com/" style="fill-rule:evenodd;clip-rule:evenodd;stroke-linejoin:round;stroke-miterlimit:2;"><g id="Steam"><path d="M0,56C0,60.418 3.582,64 8,64L56,64C60.418,64 64,60.418 64,56L64,8C64,3.582 60.418,0 56,0L8,0C3.582,0 0,3.582 0,8L0,56Z" style="fill:url(#_Linear1);fill-rule:nonzero;"/><g><path d="M2,30.7L17.237,36.98C17.707,36.662 18.209,36.394 18.735,36.18C19.943,35.683 21.215,35.46 22.483,35.518L30.313,24.143L30.31,23.985L30.3,23.985C30.3,17.271 35.753,11.811 42.455,11.811C49.17,11.825 54.61,17.271 54.61,23.985C54.61,30.699 49.16,36.165 42.455,36.165L42.18,36.16L30.987,44.165C31.019,45.418 30.786,46.664 30.303,47.821C28.43,52.313 23.194,54.47 18.7,52.603C15.938,51.453 14.058,49.061 13.458,46.333L2,41.605L2,30.7ZM28.43,47.035L28.422,47.035C29.124,45.349 29.128,43.482 28.432,41.789C27.736,40.096 26.436,38.772 24.736,38.069C23.058,37.372 21.264,37.392 19.686,37.992L23.786,39.687C26.34,40.754 27.565,43.733 26.501,46.288C25.721,48.165 23.879,49.394 21.847,49.394C21.182,49.394 20.524,49.262 19.91,49.007L15.953,47.367C16.675,48.882 17.93,50.079 19.477,50.729C22.964,52.182 26.976,50.535 28.43,47.035ZM42.466,32.1C46.91,32.089 50.562,28.431 50.566,23.987C50.561,19.543 46.91,15.887 42.466,15.876C38.023,15.888 34.373,19.544 34.368,23.987C34.372,28.431 38.022,32.088 42.466,32.1ZM36.398,23.974C36.395,20.635 39.139,17.884 42.478,17.879C45.833,17.879 48.562,20.609 48.562,23.974C48.564,27.314 45.818,30.064 42.478,30.067C39.139,30.062 36.396,27.313 36.398,23.974Z" style="fill:url(#_Linear2);"/><path d="M1,41.192L1,30.288L2,30.7L2,41.605L1,41.192Z" style="fill:url(#_Linear3);"/><g transform="matrix(1.00117,0,0,1,-0.00116713,0)"><path d="M1,31.288L1,30.288L2,30.7L2,31.7L1,31.288Z" style="fill-opacity:0.19;"/></g><path d="M2,30.7L17.237,36.98C17.707,36.662 18.209,36.394 18.735,36.18C19.943,35.683 21.215,35.46 22.483,35.518L30.313,24.143L30.31,23.985L30.3,23.985C30.3,17.271 35.753,11.811 42.455,11.811C49.17,11.825 54.61,17.271 54.61,23.985C54.61,24.152 54.607,24.319 54.6,24.485C54.338,18.003 49.002,12.825 42.455,12.811C35.753,12.811 30.3,18.271 30.3,24.985L30.31,24.985L30.313,25.143L22.483,36.518C21.215,36.46 19.943,36.683 18.735,37.18C18.209,37.394 17.707,37.662 17.237,37.98L2,31.7L2,30.7ZM34.384,24.488C34.649,28.702 38.191,32.088 42.466,32.1C46.742,32.089 50.285,28.703 50.55,24.488C50.56,24.653 50.566,24.819 50.566,24.987C50.562,29.431 46.91,33.089 42.466,33.1C38.022,33.088 34.372,29.431 34.368,24.987C34.368,24.819 34.374,24.653 34.384,24.488ZM36.418,24.473C36.404,24.308 36.397,24.142 36.398,23.974C36.395,20.635 39.139,17.884 42.478,17.879C45.833,17.879 48.562,20.609 48.562,23.974C48.562,24.142 48.555,24.308 48.542,24.473C48.287,21.342 45.665,18.879 42.478,18.879C39.308,18.884 36.673,21.364 36.418,24.473ZM16.806,48.72C17.511,49.594 18.427,50.288 19.477,50.729C22.964,52.182 26.976,50.535 28.43,47.035L28.422,47.035C28.709,46.346 28.879,45.627 28.933,44.901C29.011,45.96 28.841,47.03 28.422,48.035L28.43,48.035C26.976,51.535 22.964,53.182 19.477,51.729C17.93,51.079 16.675,49.882 15.953,48.367L16.806,48.72ZM21.179,38.609L23.786,39.687C25.876,40.56 27.076,42.713 26.86,44.867C26.681,43.075 25.551,41.424 23.786,40.687L19.686,38.992C20.167,38.809 20.667,38.68 21.179,38.609Z" style="fill-opacity:0.25;"/></g></g><g><path d="M64,8L64,56C64,60.415 60.415,64 56,64L8,64C3.585,64 0,60.415 0,56L0,8C0,3.585 3.585,0 8,0L56,0C60.415,0 64,3.585 64,8ZM63,8C63,4.137 59.863,1 56,1L8,1C4.137,1 1,4.137 1,8L1,56C1,59.863 4.137,63 8,63L56,63C59.863,63 63,59.863 63,56L63,8Z" style="fill-opacity:0.5;"/><g transform="matrix(0.96875,0,0,0.96875,1,1)"><path d="M64,7.226L64,56.774C64,60.762 60.762,64 56.774,64L7.226,64C3.238,64 0,60.762 0,56.774L0,7.226C0,3.238 3.238,0 7.226,0L56.774,0C60.762,0 64,3.238 64,7.226ZM62.968,7.226C62.968,3.807 60.193,1.032 56.774,1.032L7.226,1.032C3.807,1.032 1.032,3.807 1.032,7.226L1.032,56.774C1.032,60.193 3.807,62.968 7.226,62.968L56.774,62.968C60.193,62.968 62.968,60.193 62.968,56.774L62.968,7.226Z" style="fill:white;fill-opacity:0.25;"/></g></g><defs><linearGradient id="_Linear1" x1="0" y1="0" x2="1" y2="0" gradientUnits="userSpaceOnUse" gradientTransform="matrix(3.91887e-15,64,-64,3.91887e-15,31.9935,0)"><stop offset="0" style="stop-color:rgb(17,29,46);stop-opacity:1"/><stop offset="0.21" style="stop-color:rgb(5,24,57);stop-opacity:1"/><stop offset="0.41" style="stop-color:rgb(10,27,72);stop-opacity:1"/><stop offset="0.58" style="stop-color:rgb(19,46,98);stop-opacity:1"/><stop offset="0.74" style="stop-color:rgb(20,75,126);stop-opacity:1"/><stop offset="0.87" style="stop-color:rgb(19,100,151);stop-opacity:1"/><stop offset="1" style="stop-color:rgb(19,135,184);stop-opacity:1"/></linearGradient><linearGradient id="_Linear2" x1="0" y1="0" x2="1" y2="0" gradientUnits="userSpaceOnUse" gradientTransform="matrix(-0.347444,41.4646,-41.4646,-0.347444,32,11.811)"><stop offset="0" style="stop-color:rgb(230,230,230);stop-opacity:1"/><stop offset="1" style="stop-color:white;stop-opacity:1"/></linearGradient><linearGradient id="_Linear3" x1="0" y1="0" x2="1" y2="0" gradientUnits="userSpaceOnUse" gradientTransform="matrix(2.53898e-15,41.4646,-41.4646,2.53898e-15,32,11.811)"><stop offset="0" style="stop-color:rgb(230,230,230);stop-opacity:0.75"/><stop offset="1" style="stop-color:white;stop-opacity:0.75"/></linearGradient></defs></svg>