<?xml version="1.0" encoding="UTF-8" standalone="no"?><!DOCTYPE svg PUBLIC "-//W3C//DTD SVG 1.1//EN" "http://www.w3.org/Graphics/SVG/1.1/DTD/svg11.dtd"><svg width="64px" height="64px" version="1.1" xmlns="http://www.w3.org/2000/svg" xmlns:xlink="http://www.w3.org/1999/xlink" xml:space="preserve" xmlns:serif="http://www.serif.com/" style="fill-rule:evenodd;clip-rule:evenodd;stroke-linejoin:round;stroke-miterlimit:2;"><g id="TheTrevorProject"><path d="M64,8L64,56C64,60.415 60.415,64 56,64L8,64C3.585,64 0,60.415 0,56L0,8C0,3.585 3.585,0 8,0L56,0C60.415,0 64,3.585 64,8Z" style="fill:rgb(255,89,62);"/><path d="M64,8L64,56C64,60.415 60.415,64 56,64L8,64C3.585,64 0,60.415 0,56L0,8C0,3.585 3.585,0 8,0L56,0C60.415,0 64,3.585 64,8Z" style="fill:url(#_Linear1);"/><g transform="matrix(0.772108,0,0,0.772108,-236.963,9.02625)"><path d="M378.76,40.43L359.76,41.15C359.746,41.151 359.732,41.151 359.718,41.151C359.317,41.151 358.988,40.822 358.988,40.421C358.988,40.328 359.005,40.236 359.04,40.15L364.12,26.49C364.224,26.201 364.5,26.008 364.807,26.008C364.989,26.008 365.165,26.077 365.3,26.2L379.22,39.2C379.356,39.335 379.433,39.519 379.433,39.712C379.433,40.089 379.137,40.406 378.76,40.43ZM345,12.12C345.289,11.937 345.465,11.617 345.465,11.275C345.465,10.933 345.289,10.613 345,10.43C341,7.82 329.23,0.12 329.23,0.12C329.113,0.041 328.975,-0.001 328.834,-0.001C328.444,-0.001 328.124,0.32 328.124,0.709C328.124,0.76 328.129,0.81 328.14,0.86L331.94,19.09C332.026,19.564 332.442,19.912 332.924,19.912C333.13,19.912 333.331,19.849 333.5,19.73L345,12.12ZM367.88,3.75C367.889,3.68 367.889,3.61 367.88,3.54L367.88,3.47C367.885,3.423 367.885,3.377 367.88,3.33C367.875,3.283 367.88,3.33 367.88,3.27C367.861,3.221 367.837,3.175 367.81,3.13C367.772,3.079 367.728,3.032 367.68,2.99C367.64,2.958 367.597,2.931 367.55,2.91L367,2.91L366.8,3L317.59,35.63C317.402,35.747 317.282,35.949 317.27,36.17C317.265,36.237 317.265,36.303 317.27,36.37C317.264,36.403 317.264,36.437 317.27,36.47C317.325,36.646 317.453,36.792 317.62,36.87C317.69,36.901 317.764,36.921 317.84,36.93L338.23,39.43C338.359,39.444 338.481,39.496 338.58,39.58C338.683,39.66 338.763,39.768 338.81,39.89L346,59.16C346.021,59.213 346.047,59.263 346.08,59.31C346.105,59.342 346.135,59.369 346.17,59.39C346.188,59.418 346.212,59.442 346.24,59.46L346.32,59.46L346.43,59.51L346.92,59.51L347.03,59.46L347.14,59.36L347.19,59.36C347.238,59.297 347.276,59.226 347.3,59.15L356.08,35.53L367.88,3.75Z" style="fill:white;fill-rule:nonzero;"/></g><g transform="matrix(0.772108,0,0,0.772108,-236.963,9.02625)"><path d="M317.653,36.883C317.642,36.879 317.631,36.875 317.62,36.87C317.453,36.792 317.325,36.646 317.27,36.47C317.264,36.437 317.264,36.403 317.27,36.37C317.265,36.303 317.265,36.237 317.27,36.17C317.282,35.949 317.402,35.747 317.59,35.63L366.8,3L367,2.91L367.55,2.91C367.597,2.931 367.64,2.958 367.68,2.99C367.728,3.032 367.772,3.079 367.81,3.13C367.837,3.175 367.861,3.221 367.88,3.27C367.88,3.33 367.875,3.283 367.88,3.33C367.885,3.377 367.885,3.423 367.88,3.47L367.88,3.54C367.889,3.61 367.889,3.68 367.88,3.75L367.681,4.285C367.641,4.253 367.597,4.226 367.55,4.205L367,4.205L366.8,4.295L317.653,36.883ZM359.222,40.955C359.078,40.822 358.988,40.631 358.988,40.421C358.988,40.328 359.005,40.236 359.04,40.15L364.12,26.49C364.224,26.201 364.5,26.008 364.807,26.008C364.989,26.008 365.165,26.077 365.3,26.2L379.22,39.2C379.356,39.335 379.433,39.519 379.433,39.712C379.433,39.981 379.282,40.22 379.057,40.343L365.3,27.495C365.165,27.372 364.989,27.303 364.807,27.303C364.5,27.303 364.224,27.497 364.12,27.785L359.222,40.955ZM328.285,1.556L328.14,0.86C328.129,0.81 328.124,0.76 328.124,0.709C328.124,0.32 328.444,-0.001 328.834,-0.001C328.975,-0.001 329.113,0.041 329.23,0.12C329.23,0.12 341,7.82 345,10.43C345.289,10.613 345.465,10.933 345.465,11.275C345.465,11.515 345.379,11.744 345.227,11.923C345.163,11.847 345.086,11.78 345,11.725C341,9.115 329.23,1.415 329.23,1.415C329.113,1.336 328.975,1.294 328.834,1.294C328.614,1.294 328.416,1.397 328.285,1.556Z" style="fill-opacity:0.25;"/></g></g><g><path d="M64,8L64,56C64,60.415 60.415,64 56,64L8,64C3.585,64 0,60.415 0,56L0,8C0,3.585 3.585,0 8,0L56,0C60.415,0 64,3.585 64,8ZM63,8C63,4.137 59.863,1 56,1L8,1C4.137,1 1,4.137 1,8L1,56C1,59.863 4.137,63 8,63L56,63C59.863,63 63,59.863 63,56L63,8Z" style="fill-opacity:0.5;"/><g transform="matrix(0.96875,0,0,0.96875,1,1)"><path d="M64,7.226L64,56.774C64,60.762 60.762,64 56.774,64L7.226,64C3.238,64 0,60.762 0,56.774L0,7.226C0,3.238 3.238,0 7.226,0L56.774,0C60.762,0 64,3.238 64,7.226ZM62.968,7.226C62.968,3.807 60.193,1.032 56.774,1.032L7.226,1.032C3.807,1.032 1.032,3.807 1.032,7.226L1.032,56.774C1.032,60.193 3.807,62.968 7.226,62.968L56.774,62.968C60.193,62.968 62.968,60.193 62.968,56.774L62.968,7.226Z" style="fill:white;fill-opacity:0.25;"/></g></g><defs><linearGradient id="_Linear1" x1="0" y1="0" x2="1" y2="0" gradientUnits="userSpaceOnUse" gradientTransform="matrix(3.91887e-15,64,-64,3.91887e-15,32,-1.77636e-15)"><stop offset="0" style="stop-color:rgb(255,156,140);stop-opacity:1"/><stop offset="0.5" style="stop-color:rgb(237,33,0);stop-opacity:1"/><stop offset="1" style="stop-color:rgb(255,89,62);stop-opacity:1"/></linearGradient></defs></svg>