<?xml version="1.0" encoding="UTF-8" standalone="no"?><!DOCTYPE svg PUBLIC "-//W3C//DTD SVG 1.1//EN" "http://www.w3.org/Graphics/SVG/1.1/DTD/svg11.dtd"><svg width="64px" height="64px" version="1.1" xmlns="http://www.w3.org/2000/svg" xmlns:xlink="http://www.w3.org/1999/xlink" xml:space="preserve" xmlns:serif="http://www.serif.com/" style="fill-rule:evenodd;clip-rule:evenodd;stroke-linejoin:round;stroke-miterlimit:2;"><g id="VirusTotal"><path d="M64,8L64,56C64,60.415 60.415,64 56,64L8,64C3.585,64 0,60.415 0,56L0,8C0,3.585 3.585,0 8,0L56,0C60.415,0 64,3.585 64,8Z" style="fill:rgb(11,77,218);"/><path d="M64,8L64,56C64,60.415 60.415,64 56,64L8,64C3.585,64 0,60.415 0,56L0,8C0,3.585 3.585,0 8,0L56,0C60.415,0 64,3.585 64,8Z" style="fill:url(#_Linear1);"/><g transform="matrix(0.48,0,0,0.48,8,10.64)"><path d="M45.292,44.5L0,89L100,89L100,0L0,0L45.292,44.5ZM90,80L22,80L57.987,44.8L22,9L90,9L90,80Z" style="fill:url(#_Linear2);"/></g><g transform="matrix(0.48,0,0,0.48,8,10.64)"><path d="M100,2.083L2.12,2.083L0,0L100,0L100,2.083ZM44.232,45.542L45.292,46.583L2.12,89L0,89L44.232,45.542ZM90,80L90,82.083L22,82.083L24.13,80L90,80ZM56.931,45.833L22,11.083L24.094,11.083L57.987,44.8L56.931,45.833Z" style="fill-opacity:0.25;"/></g></g><g><path d="M64,8L64,56C64,60.415 60.415,64 56,64L8,64C3.585,64 0,60.415 0,56L0,8C0,3.585 3.585,0 8,0L56,0C60.415,0 64,3.585 64,8ZM63,8C63,4.137 59.863,1 56,1L8,1C4.137,1 1,4.137 1,8L1,56C1,59.863 4.137,63 8,63L56,63C59.863,63 63,59.863 63,56L63,8Z" style="fill-opacity:0.5;"/><g transform="matrix(0.96875,0,0,0.96875,1,1)"><path d="M64,7.226L64,56.774C64,60.762 60.762,64 56.774,64L7.226,64C3.238,64 0,60.762 0,56.774L0,7.226C0,3.238 3.238,0 7.226,0L56.774,0C60.762,0 64,3.238 64,7.226ZM62.968,7.226C62.968,3.807 60.193,1.032 56.774,1.032L7.226,1.032C3.807,1.032 1.032,3.807 1.032,7.226L1.032,56.774C1.032,60.193 3.807,62.968 7.226,62.968L56.774,62.968C60.193,62.968 62.968,60.193 62.968,56.774L62.968,7.226Z" style="fill:white;fill-opacity:0.25;"/></g></g><defs><linearGradient id="_Linear1" x1="0" y1="0" x2="1" y2="0" gradientUnits="userSpaceOnUse" gradientTransform="matrix(3.91887e-15,64,-64,3.91887e-15,32,-1.77636e-15)"><stop offset="0" style="stop-color:rgb(43,107,244);stop-opacity:1"/><stop offset="0.5" style="stop-color:rgb(8,58,164);stop-opacity:1"/><stop offset="1" style="stop-color:rgb(11,77,218);stop-opacity:1"/></linearGradient><linearGradient id="_Linear2" x1="0" y1="0" x2="1" y2="0" gradientUnits="userSpaceOnUse" gradientTransform="matrix(5.44968e-15,89,-89,5.44968e-15,50,0)"><stop offset="0" style="stop-color:rgb(230,230,230);stop-opacity:1"/><stop offset="1" style="stop-color:white;stop-opacity:1"/></linearGradient></defs></svg>