<?xml version="1.0" encoding="UTF-8" standalone="no"?><!DOCTYPE svg PUBLIC "-//W3C//DTD SVG 1.1//EN" "http://www.w3.org/Graphics/SVG/1.1/DTD/svg11.dtd"><svg width="64px" height="64px" version="1.1" xmlns="http://www.w3.org/2000/svg" xmlns:xlink="http://www.w3.org/1999/xlink" xml:space="preserve" xmlns:serif="http://www.serif.com/" style="fill-rule:evenodd;clip-rule:evenodd;stroke-linejoin:round;stroke-miterlimit:2;"><g id="YouTube"><path d="M64,8L64,56C64,60.415 60.415,64 56,64L8,64C3.585,64 0,60.415 0,56L0,8C0,3.585 3.585,0 8,0L56,0C60.415,0 64,3.585 64,8Z" style="fill:rgb(255,0,51);"/><path d="M64,8L64,56C64,60.415 60.415,64 56,64L8,64C3.585,64 0,60.415 0,56L0,8C0,3.585 3.585,0 8,0L56,0C60.415,0 64,3.585 64,8Z" style="fill:url(#_Linear1);"/><g transform="matrix(1.65517,0,0,1.65517,-20.9655,-20.9655)"><g transform="matrix(1,0,0,1,17.5,22)"><path d="M14.485,20C14.485,20 5.42,20 3.177,19.4C1.929,19.06 0.954,18.08 0.599,16.87C0,14.65 0,9.98 0,9.98C0,9.98 0,5.34 0.599,3.14C0.954,1.9 1.929,0.94 3.177,0.61C5.42,0 14.485,0 14.485,0C14.485,0 23.57,0 25.823,0.61C27.092,0.94 28.046,1.9 28.381,3.14C29,5.34 29,9.98 29,9.98C29,9.98 29,14.65 28.381,16.87C28.046,18.08 27.092,19.06 25.823,19.4C23.57,20 14.485,20 14.485,20ZM19,10L11.5,5.75L11.5,14.25L19,10Z" style="fill:url(#_Linear2);"/></g><g transform="matrix(1,0,0,1,17.5,22)"><path d="M0.002,10.283C0,10.09 0,9.98 0,9.98C0,9.98 0,5.34 0.599,3.14C0.954,1.9 1.929,0.94 3.177,0.61C5.42,0 14.485,0 14.485,0C14.485,0 23.569,0 25.823,0.61C27.092,0.94 28.046,1.9 28.381,3.14C29,5.34 29,9.98 29,9.98C29,9.98 29,10.09 28.998,10.283C28.985,9.22 28.905,5.607 28.381,3.744C28.046,2.504 27.092,1.544 25.823,1.214C23.569,0.604 14.485,0.604 14.485,0.604C14.485,0.604 5.42,0.604 3.177,1.214C1.929,1.544 0.954,2.504 0.599,3.744C0.092,5.607 0.014,9.22 0.002,10.283ZM11.5,14.25L18.467,10.302L19,10.604L11.5,14.854L11.5,14.25Z" style="fill-opacity:0.25;"/></g></g></g><g><path d="M64,8L64,56C64,60.415 60.415,64 56,64L8,64C3.585,64 0,60.415 0,56L0,8C0,3.585 3.585,0 8,0L56,0C60.415,0 64,3.585 64,8ZM63,8C63,4.137 59.863,1 56,1L8,1C4.137,1 1,4.137 1,8L1,56C1,59.863 4.137,63 8,63L56,63C59.863,63 63,59.863 63,56L63,8Z" style="fill-opacity:0.5;"/><g transform="matrix(0.96875,0,0,0.96875,1,1)"><path d="M64,7.226L64,56.774C64,60.762 60.762,64 56.774,64L7.226,64C3.238,64 0,60.762 0,56.774L0,7.226C0,3.238 3.238,0 7.226,0L56.774,0C60.762,0 64,3.238 64,7.226ZM62.968,7.226C62.968,3.807 60.193,1.032 56.774,1.032L7.226,1.032C3.807,1.032 1.032,3.807 1.032,7.226L1.032,56.774C1.032,60.193 3.807,62.968 7.226,62.968L56.774,62.968C60.193,62.968 62.968,60.193 62.968,56.774L62.968,7.226Z" style="fill:white;fill-opacity:0.25;"/></g></g><defs><linearGradient id="_Linear1" x1="0" y1="0" x2="1" y2="0" gradientUnits="userSpaceOnUse" gradientTransform="matrix(3.91887e-15,64,-64,3.91887e-15,32,-1.77636e-15)"><stop offset="0" style="stop-color:rgb(255,64,102);stop-opacity:1"/><stop offset="0.5" style="stop-color:rgb(191,0,38);stop-opacity:1"/><stop offset="1" style="stop-color:rgb(255,0,51);stop-opacity:1"/></linearGradient><linearGradient id="_Linear2" x1="0" y1="0" x2="1" y2="0" gradientUnits="userSpaceOnUse" gradientTransform="matrix(1.22465e-15,20,-20,1.22465e-15,14.5,0)"><stop offset="0" style="stop-color:rgb(230,230,230);stop-opacity:1"/><stop offset="1" style="stop-color:white;stop-opacity:1"/></linearGradient></defs></svg>